<?xml version="1.0" encoding="UTF-8"?>
<svg width="9px" height="9px" viewBox="0 0 9 9" version="1.1" xmlns="http://www.w3.org/2000/svg" xmlns:xlink="http://www.w3.org/1999/xlink">
    <!-- Generator: sketchtool 59 (101010) - https://sketch.com -->
    <title>B5E40A41-ABC2-436F-B127-A51D240BB09F</title>
    <desc>Created with sketchtool.</desc>
    <g id="App-L" stroke="none" stroke-width="1" fill="none" fill-rule="evenodd">
        <g id="01.00-Apps-WO-ICAM" transform="translate(-735.000000, -362.000000)">
            <g id="Group-3" transform="translate(71.000000, 222.714844)">
                <g id="Organization-/-Status-/-unknown-/-16-Copy-Organization-/-Status-/-unknown--filled-/-16" transform="translate(663.500000, 138.785156)">
                    <path d="M9.19250022,4.55937507 L5.44062513,0.807812477 C5.32376578,0.690948309 5.1652676,0.625294298 5.00000012,0.625294298 C4.83473264,0.625294298 4.67623446,0.690948309 4.55937511,0.807812477 L0.807812514,4.55968757 C0.564663211,4.80299932 0.564663211,5.19731334 0.807812514,5.44062509 L4.55937511,9.19250019 C4.80268686,9.43564949 5.19700088,9.43564949 5.44031263,9.19250019 L9.19250022,5.44062509 C9.30936439,5.32376575 9.3750184,5.16526756 9.3750184,5.00000008 C9.3750184,4.8347326 9.30936439,4.67623442 9.19250022,4.55937507 Z M4.99999993,7.49999985 C4.74111645,7.49999985 4.53124993,7.29013333 4.53124993,7.03124985 C4.53124993,6.77236637 4.74111645,6.56249985 4.99999993,6.56249985 C5.2588834,6.56249985 5.46874993,6.77236637 5.46874993,7.03124985 C5.46874993,7.29013333 5.2588834,7.49999985 4.99999993,7.49999985 Z M5.3515624,5.39 L5.3515624,5.9765625 L4.64843741,5.9765625 L4.64843741,4.6875 L5.3124999,4.6875 C5.63610424,4.6875 5.89843743,4.42516685 5.89843743,4.1015625 C5.89843743,3.77795815 5.63610424,3.515625 5.3124999,3.515625 L4.68749991,3.515625 C4.36403836,3.51596947 4.10190689,3.77810095 4.10156242,4.1015625 L4.10156242,4.2578125 L3.39843743,4.2578125 L3.39843743,4.1015625 C3.39929837,3.38998986 3.97592728,2.81336095 4.68749991,2.8125 L5.3124999,2.8125 C6.0163998,2.81307882 6.58968786,3.37820899 6.60035438,4.08202832 C6.61102089,4.78584765 6.05512149,5.36809088 5.3515624,5.39 Z" id="Fill" fill="#8F8B8B"></path>
                    <path d="M5,6.5625 C5.25888348,6.5625 5.46875,6.77236652 5.46875,7.03125 C5.46875,7.29013348 5.25888348,7.5 5,7.5 C4.74111652,7.5 4.53125,7.29013348 4.53125,7.03125 C4.53125,6.77236652 4.74111652,6.5625 5,6.5625 Z M5.35156247,5.39 C6.05512157,5.36809088 6.61102096,4.78584765 6.60035445,4.08202832 C6.58968793,3.37820899 6.01639988,2.81307882 5.31249997,2.8125 L4.68749998,2.8125 C3.97592735,2.81336095 3.39929845,3.38998986 3.3984375,4.1015625 L3.3984375,4.2578125 L4.10156249,4.2578125 L4.10156249,4.1015625 C4.10190696,3.77810095 4.36403843,3.51596947 4.68749998,3.515625 L5.31249997,3.515625 C5.63610431,3.515625 5.8984375,3.77795815 5.8984375,4.1015625 C5.8984375,4.42516685 5.63610431,4.6875 5.31249997,4.6875 L4.64843748,4.6875 L4.64843748,5.9765625 L5.35156247,5.9765625 L5.35156247,5.39 Z" id="Inner-Fill" fill="#000000" opacity="0"></path>
                </g>
            </g>
        </g>
    </g>
</svg>