<?xml version="1.0" encoding="UTF-8"?>
<svg width="14px" height="13px" viewBox="0 0 14 13" version="1.1" xmlns="http://www.w3.org/2000/svg" xmlns:xlink="http://www.w3.org/1999/xlink">
    <title>Warning-icon</title>
    <g id="GRC" stroke="none" stroke-width="1" fill="none" fill-rule="evenodd">
        <g id="Warning-icon" fill="#F0AB00">
            <path d="M13.8584965,10.7072806 C13.9882079,10.9667038 14.0287429,11.2301802 13.9801011,11.4977102 C13.9314593,11.7652402 13.8017479,11.9922352 13.5909665,12.1786956 C13.3801852,12.3651561 13.1288693,12.4583861 12.8370183,12.4583861 L1.16298166,12.4583861 C0.871130747,12.4583861 0.619814803,12.3651561 0.409033462,12.1786956 C0.19825212,11.9922352 0.0685407255,11.7652402 0.0198989061,11.4977102 C-0.0287429134,11.2301802 0.0117920599,10.9667038 0.141503455,10.7072806 L5.97852179,0.589782154 C6.12444725,0.330358993 6.33117498,0.156059387 6.59870499,0.0668825945 C6.866235,-0.0222941982 7.133765,-0.0222941982 7.40129501,0.0668825945 C7.66882502,0.156059387 7.87555275,0.330358993 8.02147821,0.589782154 L13.8584965,10.7072806 Z M7,8.61568237 C6.69193502,8.61568237 6.42845862,8.72512646 6.20957043,8.94401465 C5.99068225,9.16290284 5.88123815,9.42637923 5.88123815,9.73444421 C5.88123815,10.0425092 5.99068225,10.3059856 6.20957043,10.5248738 C6.42845862,10.743762 6.69193502,10.8532061 7,10.8532061 C7.30806498,10.8532061 7.57154138,10.743762 7.79042957,10.5248738 C8.00931775,10.3059856 8.11876185,10.0425092 8.11876185,9.73444421 C8.11876185,9.42637923 8.00931775,9.16290284 7.79042957,8.94401465 C7.57154138,8.72512646 7.30806498,8.61568237 7,8.61568237 Z M5.92987997,4.60273226 L6.12444725,7.91037598 C6.12444725,7.97523187 6.15282177,8.03603414 6.20957043,8.09278281 C6.2663191,8.14953147 6.33522859,8.17790599 6.41629817,8.17790599 L7.58370183,8.17790599 C7.66477141,8.17790599 7.7336809,8.14953147 7.79042957,8.09278281 C7.84717823,8.03603414 7.87555275,7.97523187 7.87555275,7.91037598 L8.07012003,4.60273226 C8.07012003,4.50544862 8.04174551,4.42843228 7.98499684,4.37168362 C7.92824818,4.31493495 7.85933869,4.28656043 7.77826911,4.28656043 L6.22173089,4.28656043 C6.14066131,4.28656043 6.07175182,4.31493495 6.01500316,4.37168362 C5.95825449,4.42843228 5.92987997,4.50544862 5.92987997,4.60273226 Z" id="exclamation-triangle"></path>
        </g>
    </g>
</svg>