<?xml version="1.0" encoding="UTF-8"?>
<svg width="14px" height="14px" viewBox="0 0 14 14" version="1.1" xmlns="http://www.w3.org/2000/svg" xmlns:xlink="http://www.w3.org/1999/xlink">
    <title>Error-icon</title>
    <g id="GRC" stroke="none" stroke-width="1" fill="none" fill-rule="evenodd">
        <g id="Error-icon" fill="#C9190B">
            <path d="M7,14 C8.26075283,14 9.42741935,13.6848117 10.5,13.0544355 C11.5725806,12.4240593 12.4240593,11.5725806 13.0544355,10.5 C13.6848117,9.42741935 14,8.26075283 14,7 C14,5.73924717 13.6848117,4.57258065 13.0544355,3.5 C12.4240593,2.42741935 11.5725806,1.57594072 10.5,0.945564516 C9.42741935,0.315188316 8.26075283,0 7,0 C5.73924717,0 4.57258065,0.315188316 3.5,0.945564516 C2.42741935,1.57594072 1.57594072,2.42741935 0.945564516,3.5 C0.315188316,4.57258065 0,5.73924717 0,7 C0,8.26075283 0.315188316,9.42741935 0.945564516,10.5 C1.57594072,11.5725806 2.42741935,12.4240593 3.5,13.0544355 C4.57258065,13.6848117 5.73924717,14 7,14 Z M7.67741935,7.90322581 L6.32258065,7.90322581 C6.22849477,7.90322581 6.14852136,7.87029556 6.08266129,7.80443548 C6.01680122,7.73857541 5.98387097,7.6680109 5.98387097,7.59274194 L5.75806452,3.75403226 C5.75806452,3.64112903 5.79099477,3.55174717 5.85685484,3.4858871 C5.92271491,3.42002703 6.00268832,3.38709677 6.09677419,3.38709677 L7.90322581,3.38709677 C7.99731168,3.38709677 8.07728509,3.42002703 8.14314516,3.4858871 C8.20900523,3.55174717 8.24193548,3.64112903 8.24193548,3.75403226 L8.01612903,7.59274194 C8.01612903,7.6680109 7.98319878,7.73857541 7.91733871,7.80443548 C7.85147864,7.87029556 7.77150523,7.90322581 7.67741935,7.90322581 Z M7,11.0080645 C6.64247297,11.0080645 6.33669355,10.8810484 6.08266129,10.6270161 C5.82862903,10.3729839 5.7016129,10.0672044 5.7016129,9.70967742 C5.7016129,9.35215039 5.82862903,9.04637097 6.08266129,8.79233871 C6.33669355,8.53830645 6.64247297,8.41129032 7,8.41129032 C7.35752703,8.41129032 7.66330645,8.53830645 7.91733871,8.79233871 C8.17137097,9.04637097 8.2983871,9.35215039 8.2983871,9.70967742 C8.2983871,10.0672044 8.17137097,10.3729839 7.91733871,10.6270161 C7.66330645,10.8810484 7.35752703,11.0080645 7,11.0080645 Z" id="exclamation-circle"></path>
        </g>
    </g>
</svg>