<?xml version="1.0" encoding="UTF-8"?>
<svg width="14px" height="14px" viewBox="0 0 14 14" version="1.1" xmlns="http://www.w3.org/2000/svg" xmlns:xlink="http://www.w3.org/1999/xlink">
    <title>Success-icon</title>
    <g id="GRC" stroke="none" stroke-width="1" fill="none" fill-rule="evenodd">
        <g id="Success-icon" fill="#3E8635">
            <path d="M14,7 C14,8.26075283 13.6848117,9.42741935 13.0544355,10.5 C12.4240593,11.5725806 11.5725806,12.4240593 10.5,13.0544355 C9.42741935,13.6848117 8.26075283,14 7,14 C5.73924717,14 4.57258065,13.6848117 3.5,13.0544355 C2.42741935,12.4240593 1.57594072,11.5725806 0.945564516,10.5 C0.315188316,9.42741935 0,8.26075283 0,7 C0,5.73924717 0.315188316,4.57258065 0.945564516,3.5 C1.57594072,2.42741935 2.42741935,1.57594072 3.5,0.945564516 C4.57258065,0.315188316 5.73924717,0 7,0 C8.26075283,0 9.42741935,0.315188316 10.5,0.945564516 C11.5725806,1.57594072 12.4240593,2.42741935 13.0544355,3.5 C13.6848117,4.57258065 14,5.73924717 14,7 Z M6.18145161,10.6975806 L11.375,5.50403226 C11.4690859,5.4287633 11.516129,5.32526896 11.516129,5.19354839 C11.516129,5.06182781 11.4690859,4.95833348 11.375,4.88306452 L10.7540323,4.23387097 C10.6599464,4.13978509 10.5517472,4.09274194 10.4294355,4.09274194 C10.3071238,4.09274194 10.1989246,4.13978509 10.1048387,4.23387097 L5.87096774,8.46774194 L3.89516129,6.49193548 C3.80107541,6.39784961 3.6928762,6.35080645 3.57056452,6.35080645 C3.44825283,6.35080645 3.34005362,6.39784961 3.24596774,6.49193548 L2.625,7.14112903 C2.53091412,7.21639799 2.48387097,7.31989233 2.48387097,7.4516129 C2.48387097,7.58333348 2.53091412,7.68682781 2.625,7.76209677 L5.56048387,10.6975806 C5.63575283,10.7916665 5.73924717,10.8387097 5.87096774,10.8387097 C6.00268832,10.8387097 6.10618265,10.7916665 6.18145161,10.6975806 Z" id="check-circle"></path>
        </g>
    </g>
</svg>