<?xml version="1.0" encoding="UTF-8"?>
<svg width="14px" height="14px" viewBox="0 0 14 14" version="1.1" xmlns="http://www.w3.org/2000/svg" xmlns:xlink="http://www.w3.org/1999/xlink">
    <title>Icons/1. Size md (16px)/Status/pficon-in-progress</title>
    <g id="GRC" stroke="none" stroke-width="1" fill="none" fill-rule="evenodd">
        <g id="Icons/1.-Size-md-(16px)/Status/pficon-in-progress" fill="#151515">
            <path d="M6.98632812,14 C7.46940104,14 7.93652344,13.9544271 8.38769531,13.8632812 C8.83886719,13.7721354 9.27864583,13.6354167 9.70703125,13.453125 C10.1263021,13.2708333 10.5227865,13.054362 10.8964844,12.8037109 C11.2701823,12.5530599 11.6119792,12.2682292 11.921875,11.9492188 C12.2408854,11.6302083 12.5257161,11.2861328 12.7763672,10.9169922 C13.0270182,10.5478516 13.2434896,10.1490885 13.4257812,9.72070312 C13.6171875,9.30143229 13.7584635,8.86393229 13.8496094,8.40820312 C13.9407552,7.95247396 13.9863281,7.48307292 13.9863281,7 C13.9863281,6.51692708 13.9407552,6.04980469 13.8496094,5.59863281 C13.7584635,5.14746094 13.6171875,4.70768229 13.4257812,4.27929688 C13.2434896,3.86002604 13.0270182,3.46354167 12.7763672,3.08984375 C12.5257161,2.71614583 12.2408854,2.37434896 11.921875,2.06445312 C11.6119792,1.74544271 11.2701823,1.46061198 10.8964844,1.20996094 C10.5227865,0.959309896 10.1263021,0.742838542 9.70703125,0.560546875 C9.27864583,0.369140625 8.83886719,0.227864583 8.38769531,0.13671875 C7.93652344,0.0455729167 7.46940104,0 6.98632812,0 L6.98632812,1.88671875 C7.33268229,1.89583333 7.66992188,1.93229167 7.99804688,1.99609375 C8.32617188,2.05989583 8.64518229,2.16015625 8.95507812,2.296875 C9.26497396,2.43359375 9.55436198,2.59309896 9.82324219,2.77539062 C10.0921224,2.95768229 10.3450521,3.16731771 10.5820312,3.40429688 C10.8190104,3.64127604 11.0286458,3.89420573 11.2109375,4.16308594 C11.3932292,4.43196615 11.5527344,4.72135417 11.6894531,5.03125 C11.8261719,5.35026042 11.9287109,5.67610677 11.9970703,6.00878906 C12.0654297,6.34147135 12.0996094,6.68098958 12.0996094,7.02734375 C12.0996094,7.3828125 12.0654297,7.72688802 11.9970703,8.05957031 C11.9287109,8.3922526 11.8261719,8.71809896 11.6894531,9.03710938 C11.5527344,9.34700521 11.3932292,9.63867188 11.2109375,9.91210938 C11.0286458,10.1855469 10.8190104,10.4361979 10.5820312,10.6640625 C10.3450521,10.9010417 10.0921224,11.1106771 9.82324219,11.2929688 C9.55436198,11.4752604 9.26497396,11.6347656 8.95507812,11.7714844 C8.63606771,11.9082031 8.31022135,12.0084635 7.97753906,12.0722656 C7.64485677,12.1360677 7.30533854,12.1679688 6.95898438,12.1679688 C6.65820312,12.1679688 6.3688151,12.1451823 6.09082031,12.0996094 C5.81282552,12.0540365 5.54166667,11.9856771 5.27734375,11.8945312 L4.36132812,13.4941406 C4.77148438,13.6673177 5.1953125,13.7949219 5.6328125,13.8769531 C6.0703125,13.9589844 6.52148438,14 6.98632812,14 Z M0,6.5078125 L1.859375,6.38476562 C1.88671875,6.14778646 1.93001302,5.91764323 1.98925781,5.69433594 C2.0485026,5.47102865 2.12369792,5.25455729 2.21484375,5.04492188 C2.2421875,4.98111979 2.26953125,4.91959635 2.296875,4.86035156 C2.32421875,4.80110677 2.35611979,4.73958333 2.39257812,4.67578125 L0.73828125,3.85546875 C0.701822917,3.91927083 0.667643229,3.98763021 0.635742188,4.06054688 C0.603841146,4.13346354 0.57421875,4.20638021 0.546875,4.27929688 C0.391927083,4.63476562 0.268880208,4.99707031 0.177734375,5.36621094 C0.0865885417,5.73535156 0.02734375,6.11588542 0,6.5078125 Z M2.63867188,12.4824219 L3.5546875,10.8828125 C3.51822917,10.8463542 3.47949219,10.8121745 3.43847656,10.7802734 C3.39746094,10.7483724 3.35872396,10.7141927 3.32226562,10.6777344 C3.09440104,10.4407552 2.88704427,10.1855469 2.70019531,9.91210938 C2.51334635,9.63867188 2.3515625,9.34700521 2.21484375,9.03710938 C2.16927083,8.92773438 2.12825521,8.81835938 2.09179688,8.70898438 C2.05533854,8.59960938 2.0234375,8.49023438 1.99609375,8.38085938 L0.150390625,8.50390625 C0.195963542,8.71354167 0.250651042,8.92089844 0.314453125,9.12597656 C0.378255208,9.33105469 0.455729167,9.52929688 0.546875,9.72070312 C0.729166667,10.1490885 0.945638021,10.5478516 1.19628906,10.9169922 C1.4469401,11.2861328 1.73177083,11.6302083 2.05078125,11.9492188 C2.14192708,12.0494792 2.23535156,12.1429036 2.33105469,12.2294922 C2.42675781,12.3160807 2.52929688,12.4003906 2.63867188,12.4824219 Z" id="pficon-in-progress"></path>
        </g>
    </g>
</svg>