<?xml version="1.0" encoding="UTF-8"?>
<svg width="32px" height="35px" viewBox="0 0 32 35" version="1.1" xmlns="http://www.w3.org/2000/svg" xmlns:xlink="http://www.w3.org/1999/xlink">
    <title>01_Hardware/Storage-stack/Storage-stack_outline</title>
    <defs>
        <path d="M16,0.397727273 C7.248,0.397727273 0.4,4.42272727 0.4,9.54545455 L0.4,25.4545455 C0.4,30.5772727 7.248,34.6022727 16,34.6022727 C24.752,34.6022727 31.6,30.5772727 31.6,25.4545455 L31.6,9.54545455 C31.6,4.42272727 24.752,0.397727273 16,0.397727273 Z M29.2,17.5 C29.2,21.1590909 23.152,24.2613636 16,24.2613636 C8.848,24.2613636 2.8,21.1590909 2.8,17.5 L2.8,14.4772727 C5.536,17.0227273 10.368,18.6931818 16,18.6931818 C21.632,18.6931818 26.464,17.0227273 29.2,14.4772727 L29.2,17.5 Z M16,2.78409091 C23.152,2.78409091 29.2,5.88636364 29.2,9.54545455 C29.2,13.2045455 23.152,16.3068182 16,16.3068182 C8.848,16.3068182 2.8,13.2045455 2.8,9.54545455 C2.8,5.88636364 8.848,2.78409091 16,2.78409091 Z M16,32.2159091 C8.848,32.2159091 2.8,29.1136364 2.8,25.4545455 L2.8,22.4318182 C5.536,24.9772727 10.368,26.6477273 16,26.6477273 C21.632,26.6477273 26.464,24.9772727 29.2,22.4318182 L29.2,25.4545455 C29.2,29.1136364 23.152,32.2159091 16,32.2159091 Z" id="path-1"></path>
    </defs>
    <g id="Redlines" stroke="none" stroke-width="1" fill="none" fill-rule="evenodd">
        <g id="ACM-2.1-Create-App-Redlines-01.00" transform="translate(-422.000000, -809.000000)">
            <g id="01_Hardware/Storage-stack/Storage-stack_outline" transform="translate(422.000000, 809.000000)">
                <mask id="mask-2" fill="white">
                    <use xlink:href="#path-1"></use>
                </mask>
                <use id="01_Hardware/Storage-stack/Storage-stack_black_lines" fill="#000000" xlink:href="#path-1"></use>
            </g>
        </g>
    </g>
</svg>