<?xml version="1.0" encoding="UTF-8"?>
<svg width="160px" height="160px" viewBox="0 0 160 160" version="1.1" xmlns="http://www.w3.org/2000/svg" xmlns:xlink="http://www.w3.org/1999/xlink">
    <!-- Generator: sketchtool 57.1 (101010) - https://sketch.com -->
    <title>A884EAF5-A250-4611-8C01-AFC1A6BFA9A6</title>
    <desc>Created with sketchtool.</desc>
    <defs>
        <circle id="path-1" cx="79.6785714" cy="79.6785714" r="79.6785714"></circle>
        <circle id="path-3" cx="79.6785714" cy="79.6785714" r="79.6785714"></circle>
        <linearGradient x1="-11.259595%" y1="50%" x2="132.40072%" y2="55.6108955%" id="linearGradient-5">
            <stop stop-color="#FCFCFC" offset="0%"></stop>
            <stop stop-color="#DCDEDE" offset="100%"></stop>
        </linearGradient>
        <circle id="path-6" cx="79.6785714" cy="79.6785714" r="79.6785714"></circle>
        <linearGradient x1="14.6374046%" y1="84.8475431%" x2="85.3530534%" y2="15.1524569%" id="linearGradient-8">
            <stop stop-color="#AEAFAF" offset="0%"></stop>
            <stop stop-color="#D1D3D4" offset="100%"></stop>
        </linearGradient>
        <linearGradient x1="14.6374046%" y1="85.3530532%" x2="85.3530534%" y2="14.6469468%" id="linearGradient-9">
            <stop stop-color="#AEAFAF" offset="0%"></stop>
            <stop stop-color="#D1D3D4" offset="100%"></stop>
        </linearGradient>
        <linearGradient x1="14.6374046%" y1="84.4040213%" x2="85.3530534%" y2="15.5959787%" id="linearGradient-10">
            <stop stop-color="#F1F2F2" offset="0%"></stop>
            <stop stop-color="#D1D3D4" offset="100%"></stop>
        </linearGradient>
        <linearGradient x1="0.329519206%" y1="49.9995258%" x2="100%" y2="56.3439903%" id="linearGradient-11">
            <stop stop-color="#FCFCFC" offset="0%"></stop>
            <stop stop-color="#E9EAEB" offset="100%"></stop>
        </linearGradient>
        <linearGradient x1="14.6374046%" y1="85.3530618%" x2="85.3530534%" y2="14.6469382%" id="linearGradient-12">
            <stop stop-color="#4E4F4F" offset="0%"></stop>
            <stop stop-color="#D1D3D4" offset="100%"></stop>
        </linearGradient>
        <linearGradient x1="14.6374046%" y1="85.3530618%" x2="85.3530534%" y2="14.6469382%" id="linearGradient-13">
            <stop stop-color="#4E4F4F" offset="0%"></stop>
            <stop stop-color="#D1D3D4" offset="100%"></stop>
        </linearGradient>
        <linearGradient x1="14.6374046%" y1="84.8475431%" x2="85.3530534%" y2="15.1524569%" id="linearGradient-14">
            <stop stop-color="#AEAFAF" offset="0%"></stop>
            <stop stop-color="#D1D3D4" offset="100%"></stop>
        </linearGradient>
    </defs>
    <g id="New-App-Lifecycle" stroke="none" stroke-width="1" fill="none" fill-rule="evenodd">
        <g id="00.00-App-Deployment-Empty" transform="translate(-754.000000, -594.000000)">
            <g id="nothing-moon-copy" transform="translate(754.000000, 594.000000)">
                <g id="Mask" transform="translate(0.605715, 0.421429)" fill="#F5F7FA" fill-rule="nonzero">
                    <circle id="path-1" cx="79.6785714" cy="79.6785714" r="79.6785714"></circle>
                </g>
                <g id="Clipped" transform="translate(0.605715, 0.421429)">
                    <g id="Path-Clipped">
                        <mask id="mask-2" fill="white">
                            <use xlink:href="#path-1"></use>
                        </mask>
                        <g id="path-1"></g>
                        <path d="M102.875544,36.0371534 L121.701821,36.0371534 C125.827695,36.0371534 126.342865,32.9191691 126.311231,31.1904753 C126.244238,30.8200917 126.209462,30.4445859 126.207294,30.0681819 C126.209788,26.533445 129.07194,23.6692988 132.601721,23.6692996 L170.195526,23.6692996 C172.519751,23.6074091 174.694369,24.8137433 175.874689,26.8197249 C177.055009,28.8257065 177.055009,31.3151828 175.874689,33.3211644 C174.694369,35.3271458 172.519751,36.5334802 170.195526,36.4715895 L163.986381,36.4715895 C161.521231,37.4205448 159.893838,39.7913136 159.89214,42.4360358 L159.89214,42.4360358 C159.89214,45.9725402 162.755022,48.8394434 166.286567,48.8394434 L185.08121,48.8394434 C186.776702,48.8382426 188.403161,49.5118786 189.602479,50.712032 C190.801797,51.9121854 191.475637,53.5404523 191.475637,55.2383258 L191.475637,55.2383258 C191.475637,58.7748302 188.612754,61.6417333 185.08121,61.6417333 L119.003961,61.6417333 C115.473449,61.6392375 112.612026,58.7737958 112.609534,55.2383258 L112.609534,55.2383258 C112.612739,54.5087138 112.739566,53.7849374 112.984613,53.0978227 L112.984613,53.0978227 C112.984613,53.0978227 112.984613,48.8394434 107.9233,48.8394434 L102.875544,48.8394434 C99.345765,48.8369453 96.4856367,45.9707736 96.4856367,42.4360358 L96.4856367,42.4360358 C96.4856367,38.9020306 99.3464959,36.0371534 102.875544,36.0371534 L102.875544,36.0371534 Z" id="Path" fill-opacity="0.5" fill="#CFD0D0" fill-rule="nonzero" mask="url(#mask-2)"></path>
                    </g>
                    <g id="Path-Clipped">
                        <mask id="mask-4" fill="white">
                            <use xlink:href="#path-3"></use>
                        </mask>
                        <g id="path-1"></g>
                        <path d="M102.875544,34.4271534 L121.701821,34.4271534 C125.827695,34.4271534 126.342865,31.3091691 126.311231,29.5804753 C126.244238,29.2100917 126.209462,28.8345859 126.207294,28.4581819 C126.209788,24.923445 129.07194,22.0592988 132.601721,22.0592996 L170.195526,22.0592996 C172.519751,21.9974091 174.694369,23.2037433 175.874689,25.2097249 C177.055009,27.2157065 177.055009,29.7051828 175.874689,31.7111644 C174.694369,33.7171458 172.519751,34.9234802 170.195526,34.8615895 L163.986381,34.8615895 C161.521231,35.8105448 159.893838,38.1813136 159.89214,40.8260358 L159.89214,40.8260358 C159.89214,44.3625402 162.755022,47.2294434 166.286567,47.2294434 L185.08121,47.2294434 C186.776702,47.2282426 188.403161,47.9018786 189.602479,49.102032 C190.801797,50.3021854 191.475637,51.9304523 191.475637,53.6283258 L191.475637,53.6283258 C191.475637,57.1648302 188.612754,60.0317333 185.08121,60.0317333 L119.003961,60.0317333 C115.473449,60.0292375 112.612026,57.1637958 112.609534,53.6283258 L112.609534,53.6283258 C112.612739,52.8987138 112.739566,52.1749374 112.984613,51.4878227 L112.984613,51.4878227 C112.984613,51.4878227 112.984613,47.2294434 107.9233,47.2294434 L102.875544,47.2294434 C99.345765,47.2269453 96.4856367,44.3607736 96.4856367,40.8260358 L96.4856367,40.8260358 C96.4856367,37.2920306 99.3464959,34.4271534 102.875544,34.4271534 L102.875544,34.4271534 Z" id="Path" fill="url(#linearGradient-5)" fill-rule="nonzero" mask="url(#mask-4)"></path>
                    </g>
                    <g id="Group-Clipped">
                        <mask id="mask-7" fill="white">
                            <use xlink:href="#path-6"></use>
                        </mask>
                        <g id="path-1"></g>
                        <g id="Group" mask="url(#mask-7)">
                            <g transform="translate(-25.036667, 12.880000)" id="Group-5-Copy">
                                <g transform="translate(0.360141, 0.155724)">
                                    <g id="Group" transform="translate(0.000000, 0.873452)" fill-rule="nonzero">
                                        <g id="Group-5">
                                            <path d="M166.91151,68.4829309 L167.695277,69.7297302 C168.066002,70.3188061 168.567055,70.8162652 169.160389,71.1843294 L170.4162,71.9624736 C170.466686,71.9940445 170.497316,72.0491364 170.497316,72.1083757 C170.497316,72.1676149 170.466686,72.2227068 170.4162,72.2542776 L169.160389,73.032422 C168.567055,73.400486 168.066002,73.8979451 167.695277,74.4870211 L166.91151,75.7338204 C166.879711,75.783946 166.824221,75.8143557 166.764552,75.8143557 C166.704886,75.8143557 166.649396,75.783946 166.617596,75.7338204 L165.833829,74.4870211 C165.463104,73.8979451 164.96205,73.400486 164.368716,73.032422 L163.112907,72.2542776 C163.062419,72.2227068 163.03179,72.1676149 163.03179,72.1083757 C163.03179,72.0491364 163.062419,71.9940445 163.112907,71.9624736 L164.368716,71.1843294 C164.96205,70.8162652 165.463104,70.3188061 165.833829,69.7297302 L166.617596,68.4829309 C166.649396,68.4328053 166.704886,68.4023956 166.764552,68.4023956 C166.824221,68.4023956 166.879711,68.4328053 166.91151,68.4829309 Z" id="Path-Copy-14" fill-opacity="0.5" fill="url(#linearGradient-8)"></path>
                                            <path d="M122.550965,2.26402349 L123.565119,3.88897574 C124.044817,4.65671791 124.693155,5.30505587 125.460897,5.78475341 L127.085849,6.79890799 C127.151178,6.84005435 127.190811,6.91185547 127.190811,6.98906197 C127.190811,7.06626847 127.151178,7.13806964 127.085849,7.17921595 L125.460897,8.19337058 C124.693155,8.67306807 124.044817,9.32140604 123.565119,10.0891482 L122.550965,11.7141005 C122.509818,11.7794291 122.438017,11.819062 122.360811,11.819062 C122.283604,11.819062 122.211803,11.7794291 122.170657,11.7141005 L121.156502,10.0891482 C120.676804,9.32140604 120.028466,8.67306807 119.260724,8.19337058 L117.635772,7.17921595 C117.570443,7.13806964 117.530811,7.06626847 117.530811,6.98906197 C117.530811,6.91185547 117.570443,6.84005435 117.635772,6.79890799 L119.260724,5.78475341 C120.028466,5.30505587 120.676804,4.65671791 121.156502,3.88897574 L122.170657,2.26402349 C122.211803,2.19869489 122.283604,2.15906197 122.360811,2.15906197 C122.438017,2.15906197 122.509818,2.19869489 122.550965,2.26402349 Z" id="Path-Copy-14" fill-opacity="0.5" fill="url(#linearGradient-9)"></path>
                                            <path d="M98.7801026,37.0999743 L99.4562057,38.1832758 C99.776004,38.695104 100.208229,39.1273293 100.720057,39.4471276 L101.803359,40.1232307 C101.846911,40.1506616 101.873333,40.1985289 101.873333,40.25 C101.873333,40.3014711 101.846911,40.3493384 101.803359,40.3767693 L100.720057,41.0528724 C100.208229,41.3726707 99.776004,41.804896 99.4562057,42.3167242 L98.7801026,43.4000257 C98.7526718,43.4435781 98.7048044,43.47 98.6533333,43.47 C98.6018623,43.47 98.5539949,43.4435781 98.526564,43.4000257 L97.8504609,42.3167242 C97.5306626,41.804896 97.0984374,41.3726707 96.5866092,41.0528724 L95.5033076,40.3767693 C95.4597552,40.3493384 95.4333333,40.3014711 95.4333333,40.25 C95.4333333,40.1985289 95.4597552,40.1506616 95.5033076,40.1232307 L96.5866092,39.4471276 C97.0984374,39.1273293 97.5306626,38.695104 97.8504609,38.1832758 L98.526564,37.0999743 C98.5539949,37.0564219 98.6018623,37.03 98.6533333,37.03 C98.7048044,37.03 98.7526718,37.0564219 98.7801026,37.0999743 Z" id="Path-Copy-14" fill-opacity="0.5" fill="url(#linearGradient-9)"></path>
                                            <path d="M47.3868719,53.2699488 L48.7390781,55.4365517 C49.3786748,56.4602079 50.2431255,57.3246586 51.2667816,57.9642552 L53.4333847,59.3164614 C53.5204894,59.3713231 53.5733333,59.467058 53.5733333,59.57 C53.5733333,59.672942 53.5204894,59.7686769 53.4333847,59.8235386 L51.2667816,61.1757448 C50.2431255,61.8153414 49.3786748,62.6797921 48.7390781,63.7034483 L47.3868719,65.8700514 C47.3320102,65.9571561 47.2362753,66.01 47.1333333,66.01 C47.0303914,66.01 46.9346564,65.9571561 46.8797947,65.8700514 L45.5275886,63.7034483 C44.8879919,62.6797921 44.0235412,61.8153414 42.999885,61.1757448 L40.8332819,59.8235386 C40.7461772,59.7686769 40.6933333,59.672942 40.6933333,59.57 C40.6933333,59.467058 40.7461772,59.3713231 40.8332819,59.3164614 L42.999885,57.9642552 C44.0235412,57.3246586 44.8879919,56.4602079 45.5275886,55.4365517 L46.8797947,53.2699488 C46.9346564,53.1828439 47.0303914,53.13 47.1333333,53.13 C47.2362753,53.13 47.3320102,53.1828439 47.3868719,53.2699488 Z" id="Path-Copy-14" fill-opacity="0.5" fill="url(#linearGradient-9)"></path>
                                            <ellipse id="Oval-Copy-10" fill="#D8D8D8" cx="59.1463546" cy="50.5386961" rx="2.1321969" ry="2.11689797"></ellipse>
                                            <ellipse id="Oval-Copy-10" fill="#D8D8D8" cx="111.613007" cy="2.66595994" rx="2.1321969" ry="2.11689797"></ellipse>
                                            <ellipse id="Oval-Copy-10" fill="#D8D8D8" cx="158.794179" cy="63.9945392" rx="2.1321969" ry="2.11689797"></ellipse>
                                            <g id="Group" transform="translate(0.645826, 54.556003)">
                                                <g id="Group-10" transform="translate(0.356514, 0.328285)">
                                                    <path d="M151.174076,92.3838373 C169.768981,65.6137051 162.844368,29.0417818 135.707521,10.6981609 C108.570674,-7.64546016 71.4977657,-0.814423051 52.9028622,25.9557093 C34.3079585,52.7258417 41.2325716,89.2977651 68.3694181,107.641386 C95.5062647,125.985007 132.579173,119.15397 151.174076,92.3838373 Z" id="Oval-Copy-6" fill="url(#linearGradient-10)"></path>
                                                    <path d="M6.49821122,43.1697891 L25.6435775,43.1697891 C29.8393816,43.1697891 30.3632825,39.9989575 30.3311133,38.2409638 C30.2629844,37.8643026 30.2276186,37.4824322 30.2254139,37.0996486 C30.2279508,33.5050008 33.1386136,30.5923097 36.7282208,30.5923107 L74.9592103,30.5923107 C77.3228283,30.5293711 79.5343028,31.7561517 80.7346287,33.7961329 C81.9349545,35.8361142 81.9349545,38.3677851 80.7346287,40.4077663 C79.5343028,42.4477474 77.3228283,43.6745281 74.9592103,43.6115886 L68.6448239,43.6115886 C66.1378928,44.5766277 64.4829166,46.987579 64.4811894,49.677127 L64.4811894,49.677127 C64.4811894,53.2735722 67.3925951,56.189067 70.9839961,56.189067 L90.0971931,56.189067 C91.821422,56.187846 93.4754484,56.8728993 94.6950936,58.0933943 C95.9147386,59.3138893 96.6,60.969754 96.6,62.6964049 L96.6,62.6964049 C96.6,66.2928501 93.6885942,69.208345 90.0971931,69.208345 L22.8999905,69.208345 C19.3096398,69.2058067 16.3997182,66.2917981 16.3971836,62.6964049 L16.3971836,62.6964049 C16.4004429,61.9544267 16.5294195,61.2183829 16.7786203,60.5196221 L16.7786203,60.5196221 C16.7786203,60.5196221 16.7786203,56.189067 11.6315224,56.189067 L6.49821122,56.189067 C2.90860501,56.1865266 0,53.2717756 0,49.677127 L0,49.677127 C0,46.0832235 2.90934826,43.1697891 6.49821122,43.1697891 L6.49821122,43.1697891 Z" id="Path" fill-opacity="0.4" fill="#CFD0D0"></path>
                                                    <path d="M6.49821122,41.5597891 L25.6435775,41.5597891 C29.8393816,41.5597891 30.3632825,38.3889575 30.3311133,36.6309638 C30.2629844,36.2543026 30.2276186,35.8724322 30.2254139,35.4896486 C30.2279508,31.8950008 33.1386136,28.9823097 36.7282208,28.9823107 L74.9592103,28.9823107 C77.3228283,28.9193711 79.5343028,30.1461517 80.7346287,32.1861329 C81.9349545,34.2261142 81.9349545,36.7577851 80.7346287,38.7977663 C79.5343028,40.8377474 77.3228283,42.0645281 74.9592103,42.0015886 L68.6448239,42.0015886 C66.1378928,42.9666277 64.4829166,45.377579 64.4811894,48.067127 L64.4811894,48.067127 C64.4811894,51.6635722 67.3925951,54.579067 70.9839961,54.579067 L90.0971931,54.579067 C91.821422,54.577846 93.4754484,55.2628993 94.6950936,56.4833943 C95.9147386,57.7038893 96.6,59.359754 96.6,61.0864049 L96.6,61.0864049 C96.6,64.6828501 93.6885942,67.598345 90.0971931,67.598345 L22.8999905,67.598345 C19.3096398,67.5958067 16.3997182,64.6817981 16.3971836,61.0864049 L16.3971836,61.0864049 C16.4004429,60.3444267 16.5294195,59.6083829 16.7786203,58.9096221 L16.7786203,58.9096221 C16.7786203,58.9096221 16.7786203,54.579067 11.6315224,54.579067 L6.49821122,54.579067 C2.90860501,54.5765266 0,51.6617756 0,48.067127 L0,48.067127 C0,44.4732235 2.90934826,41.5597891 6.49821122,41.5597891 L6.49821122,41.5597891 Z" id="Path" fill="url(#linearGradient-11)"></path>
                                                    <path d="M145.50847,37.4253397 C145.512203,42.6355773 142.376511,47.334861 137.563953,49.3313249 C132.751395,51.3277889 127.210044,50.22813 123.524526,46.5452579 C119.839009,42.8623858 118.735372,37.3218243 120.728379,32.507833 C122.721386,27.6938417 127.418416,24.5547735 132.628653,24.5547735 C139.738366,24.5547735 145.503359,30.3156269 145.50847,37.4253397 Z" id="Path-Copy-13" fill="url(#linearGradient-12)" opacity="0.298035714"></path>
                                                    <path d="M112.656401,26.65339 C115.149203,24.790571 115.659905,21.2596432 113.797086,18.7668417 C111.934267,16.2740402 108.403339,15.7633383 105.910538,17.6261572 C103.417736,19.4889761 102.907034,23.019904 104.769853,25.5127054 C106.632672,28.0055069 110.1636,28.5162087 112.656401,26.65339 Z" id="Oval-Copy-7" fill="url(#linearGradient-13)" opacity="0.298035714"></path>
                                                </g>
                                            </g>
                                            <path d="M37.2338697,130.921303 L38.7169519,133.409953 C39.4656056,134.604155 40.4803934,135.611752 41.6831163,136.355102 L44.189525,137.901305 C44.2889433,137.966784 44.3487116,138.077363 44.3487116,138.19582 C44.3487116,138.314276 44.2889433,138.424855 44.189525,138.490335 L41.6831163,139.962909 C40.4803934,140.706258 39.4656056,141.713857 38.7169519,142.908058 L37.2338697,145.396709 C37.1732609,145.502678 37.0599882,145.568148 36.9372532,145.568148 C36.8145183,145.568148 36.7012456,145.502678 36.6406368,145.396709 L35.0685697,142.908058 C34.3211718,141.712867 33.3061248,140.705011 32.1024054,139.962909 L29.5959965,138.490335 C29.4892704,138.430155 29.4233333,138.317685 29.4233333,138.19582 C29.4233333,138.073954 29.4892704,137.961484 29.5959965,137.901305 L32.1024054,136.355102 C33.3061248,135.612999 34.3211718,134.605144 35.0685697,133.409953 L36.6406368,130.921303 C36.7012456,130.815332 36.8145183,130.749863 36.9372532,130.749863 C37.0599882,130.749863 37.1732609,130.815332 37.2338697,130.921303 Z" id="Path-Copy-11" fill="url(#linearGradient-14)"></path>
                                        </g>
                                    </g>
                                </g>
                            </g>
                        </g>
                    </g>
                </g>
            </g>
        </g>
    </g>
</svg>
