<?xml version="1.0" encoding="UTF-8"?>
<svg width="14px" height="12px" viewBox="0 0 14 12" version="1.1" xmlns="http://www.w3.org/2000/svg" xmlns:xlink="http://www.w3.org/1999/xlink">
    <title>Organization / File / folder / 16</title>
    <g id="Applications" stroke="none" stroke-width="1" fill="none" fill-rule="evenodd">
        <g id="2.1-App-10" transform="translate(-529.000000, -518.000000)" fill="#151515">
            <g id="Organization-/-File-/-folder-/-16" transform="translate(528.000000, 516.000000)">
                <path d="M5.6,3 L7.3,4.7 L7.6,5 L14,5 L14,13 L2,13 L2,3 L5.6,3 L5.6,3 Z M5.6,2 L2,2 C1.4,2 1,2.4 1,3 L1,13 C1,13.6 1.4,14 2,14 L14,14 C14.6,14 15,13.6 15,13 L15,5 C15,4.4 14.6,4 14,4 L8,4 L6.3,2.3 C6.1,2.1 5.9,2 5.6,2 Z" id="Fill"></path>
            </g>
        </g>
    </g>
</svg>