<?xml version="1.0" encoding="UTF-8"?>
<svg width="14px" height="14px" viewBox="0 0 14 14" version="1.1" xmlns="http://www.w3.org/2000/svg" xmlns:xlink="http://www.w3.org/1999/xlink">
    <title>Organization / Data / data--1 / 16</title>
    <g id="Applications" stroke="none" stroke-width="1" fill="none" fill-rule="evenodd">
        <g id="2.1-App-10" transform="translate(-97.000000, -517.000000)" fill="#151515">
            <g id="Organization-/-Data-/-data--1-/-16" transform="translate(96.000000, 516.000000)">
                <path d="M7.5,3 L14,3 L14,4 L7.5,4 L7.5,3 Z M7.5,12 L14,12 L14,13 L7.5,13 L7.5,12 Z M2,7.5 L8.5,7.5 L8.5,8.5 L2,8.5 L2,7.5 Z M3.5,5.5 C2.3954305,5.5 1.5,4.6045695 1.5,3.5 C1.5,2.3954305 2.3954305,1.5 3.5,1.5 C4.6045695,1.5 5.5,2.3954305 5.5,3.5 C5.5,4.03043298 5.28928632,4.53914081 4.91421356,4.91421356 C4.53914081,5.28928632 4.03043298,5.5 3.5,5.5 Z M3.5,2.5 C2.94771525,2.5 2.5,2.94771525 2.5,3.5 C2.5,4.05228475 2.94771525,4.5 3.5,4.5 C4.05228475,4.5 4.5,4.05228475 4.5,3.5 C4.5,2.94771525 4.05228475,2.5 3.5,2.5 L3.5,2.5 Z M3.5,14.5 C2.3954305,14.5 1.5,13.6045695 1.5,12.5 C1.5,11.3954305 2.3954305,10.5 3.5,10.5 C4.6045695,10.5 5.5,11.3954305 5.5,12.5 C5.5,13.6045695 4.6045695,14.5 3.5,14.5 Z M3.5,11.5 C2.94771525,11.5 2.5,11.9477153 2.5,12.5 C2.5,13.0522847 2.94771525,13.5 3.5,13.5 C4.05228475,13.5 4.5,13.0522847 4.5,12.5 C4.5,11.9477153 4.05228475,11.5 3.5,11.5 Z M12.5,10 C11.3954305,10 10.5,9.1045695 10.5,8 C10.5,6.8954305 11.3954305,6 12.5,6 C13.6045695,6 14.5,6.8954305 14.5,8 C14.5,8.53043298 14.2892863,9.03914081 13.9142136,9.41421356 C13.5391408,9.78928632 13.030433,10 12.5,10 Z M12.5,7 C11.9477153,7 11.5,7.44771525 11.5,8 C11.5,8.55228475 11.9477153,9 12.5,9 C13.0522847,9 13.5,8.55228475 13.5,8 C13.5,7.44771525 13.0522847,7 12.5,7 Z" id="Fill"></path>
            </g>
        </g>
    </g>
</svg>