<?xml version="1.0" encoding="UTF-8"?>
<svg width="14px" height="14px" viewBox="0 0 14 14" version="1.1" xmlns="http://www.w3.org/2000/svg" xmlns:xlink="http://www.w3.org/1999/xlink">
    <title>icon/image/time/16</title>
    <defs>
        <path d="M8,15 C4.13400675,15 1,11.8659932 1,8 C1,4.13400675 4.13400675,1 8,1 C11.8659932,1 15,4.13400675 15,8 C14.9956738,11.8641999 11.8641999,14.9956738 8,15 Z M8,2 C4.6862915,2 2,4.6862915 2,8 C2,11.3137085 4.6862915,14 8,14 C11.3137085,14 14,11.3137085 14,8 C13.9963901,4.68778793 11.3122121,2.00360992 8,2 Z M10.2935,11 L7.5,8.205 L7.5,3.5 L8.499,3.5 L8.499,7.791 L11,10.2935 L10.2935,11 L10.2935,11 Z" id="path-1"></path>
    </defs>
    <g id="Applications" stroke="none" stroke-width="1" fill="none" fill-rule="evenodd">
        <g id="2.1-App-10" transform="translate(-961.000000, -517.000000)">
            <g id="icon/image/time/16" transform="translate(960.000000, 516.000000)">
                <mask id="mask-2" fill="white">
                    <use xlink:href="#path-1"></use>
                </mask>
                <use id="icon-color" fill="#151515" xlink:href="#path-1"></use>
            </g>
        </g>
    </g>
</svg>